<mxfile host="app.diagrams.net" modified="2020-03-21T12:04:13.826Z" agent="Mozilla/5.0 (X11; Linux x86_64) AppleWebKit/537.36 (KHTML, like Gecko) Chrome/80.0.3987.87 Safari/537.36" etag="xKftnKVRgE0ib4dTEoK2" version="12.8.8" type="github">
  <diagram id="5C9XdFfTCGC1RJXX4EIV" name="Page-1">
    <mxGraphModel dx="360" dy="348" grid="1" gridSize="10" guides="1" tooltips="1" connect="1" arrows="1" fold="1" page="1" pageScale="1" pageWidth="850" pageHeight="1100" math="0" shadow="0">
      <root>
        <mxCell id="0" />
        <mxCell id="1" parent="0" />
        <mxCell id="a-dAViJiOyDhsKy4tsEm-1" value="" style="rounded=1;whiteSpace=wrap;html=1;dashed=1;" parent="1" vertex="1">
          <mxGeometry x="220" y="270" width="680" height="260" as="geometry" />
        </mxCell>
        <mxCell id="lT0N95bP3LQVqfWPbGwU-1" value="" style="rounded=1;whiteSpace=wrap;html=1;dashed=1;dashPattern=1 1;" vertex="1" parent="1">
          <mxGeometry x="710" y="315" width="180" height="115" as="geometry" />
        </mxCell>
        <mxCell id="QAyvV6yLoATiYzHATPbl-1" value="&lt;b&gt;&lt;u&gt;Processing&lt;/u&gt;&lt;/b&gt;" style="text;html=1;strokeColor=none;fillColor=none;align=center;verticalAlign=middle;whiteSpace=wrap;rounded=0;" parent="1" vertex="1">
          <mxGeometry x="400" y="290" width="280" height="20" as="geometry" />
        </mxCell>
        <mxCell id="QAyvV6yLoATiYzHATPbl-3" value="WIFI sniffer AP" style="rounded=1;whiteSpace=wrap;html=1;fillColor=#dae8fc;strokeColor=#6c8ebf;" parent="1" vertex="1">
          <mxGeometry x="240" y="320" width="120" height="40" as="geometry" />
        </mxCell>
        <mxCell id="QAyvV6yLoATiYzHATPbl-4" value="BT sniffer" style="rounded=1;whiteSpace=wrap;html=1;strokeColor=#BDBDBD;" parent="1" vertex="1">
          <mxGeometry x="239" y="386" width="120" height="40" as="geometry" />
        </mxCell>
        <mxCell id="QAyvV6yLoATiYzHATPbl-5" value="anon. GSM data" style="rounded=1;whiteSpace=wrap;html=1;strokeColor=#BDBDBD;" parent="1" vertex="1">
          <mxGeometry x="239" y="434" width="120" height="40" as="geometry" />
        </mxCell>
        <mxCell id="QAyvV6yLoATiYzHATPbl-6" value="App" style="rounded=1;whiteSpace=wrap;html=1;strokeColor=#BDBDBD;" parent="1" vertex="1">
          <mxGeometry x="240" y="480" width="120" height="40" as="geometry" />
        </mxCell>
        <mxCell id="QAyvV6yLoATiYzHATPbl-7" value="" style="shape=link;html=1;" parent="1" edge="1">
          <mxGeometry width="50" height="50" relative="1" as="geometry">
            <mxPoint x="400" y="520" as="sourcePoint" />
            <mxPoint x="400" y="280" as="targetPoint" />
          </mxGeometry>
        </mxCell>
        <mxCell id="QAyvV6yLoATiYzHATPbl-8" value="&lt;b&gt;&lt;u&gt;Acquisition&lt;/u&gt;&lt;/b&gt;" style="text;html=1;strokeColor=none;fillColor=none;align=center;verticalAlign=middle;whiteSpace=wrap;rounded=0;" parent="1" vertex="1">
          <mxGeometry x="220" y="290" width="190" height="20" as="geometry" />
        </mxCell>
        <mxCell id="QAyvV6yLoATiYzHATPbl-9" value="Aggregator" style="rhombus;whiteSpace=wrap;html=1;fillColor=#fff2cc;strokeColor=#d6b656;" parent="1" vertex="1">
          <mxGeometry x="450" y="330" width="80" height="80" as="geometry" />
        </mxCell>
        <mxCell id="QAyvV6yLoATiYzHATPbl-10" value="" style="endArrow=classic;html=1;exitX=1;exitY=0.5;exitDx=0;exitDy=0;entryX=0;entryY=0.5;entryDx=0;entryDy=0;" parent="1" source="QAyvV6yLoATiYzHATPbl-5" target="QAyvV6yLoATiYzHATPbl-9" edge="1">
          <mxGeometry width="50" height="50" relative="1" as="geometry">
            <mxPoint x="360" y="420" as="sourcePoint" />
            <mxPoint x="410" y="370" as="targetPoint" />
          </mxGeometry>
        </mxCell>
        <mxCell id="QAyvV6yLoATiYzHATPbl-11" value="" style="endArrow=classic;html=1;exitX=1;exitY=0.5;exitDx=0;exitDy=0;entryX=0.018;entryY=0.455;entryDx=0;entryDy=0;entryPerimeter=0;" parent="1" source="QAyvV6yLoATiYzHATPbl-6" target="QAyvV6yLoATiYzHATPbl-9" edge="1">
          <mxGeometry width="50" height="50" relative="1" as="geometry">
            <mxPoint x="370" y="450" as="sourcePoint" />
            <mxPoint x="440" y="420" as="targetPoint" />
          </mxGeometry>
        </mxCell>
        <mxCell id="QAyvV6yLoATiYzHATPbl-12" value="" style="endArrow=classic;html=1;exitX=1.028;exitY=0.5;exitDx=0;exitDy=0;exitPerimeter=0;entryX=0;entryY=0.5;entryDx=0;entryDy=0;" parent="1" source="QAyvV6yLoATiYzHATPbl-4" target="QAyvV6yLoATiYzHATPbl-9" edge="1">
          <mxGeometry width="50" height="50" relative="1" as="geometry">
            <mxPoint x="380" y="460" as="sourcePoint" />
            <mxPoint x="450" y="420" as="targetPoint" />
          </mxGeometry>
        </mxCell>
        <mxCell id="QAyvV6yLoATiYzHATPbl-13" value="" style="endArrow=classic;html=1;exitX=1;exitY=0.5;exitDx=0;exitDy=0;entryX=0;entryY=0.5;entryDx=0;entryDy=0;" parent="1" source="QAyvV6yLoATiYzHATPbl-3" target="QAyvV6yLoATiYzHATPbl-9" edge="1">
          <mxGeometry width="50" height="50" relative="1" as="geometry">
            <mxPoint x="390" y="470" as="sourcePoint" />
            <mxPoint x="470" y="446" as="targetPoint" />
          </mxGeometry>
        </mxCell>
        <mxCell id="QAyvV6yLoATiYzHATPbl-14" value="DB" style="shape=cylinder;whiteSpace=wrap;html=1;boundedLbl=1;backgroundOutline=1;fillColor=#fff2cc;strokeColor=#d6b656;" parent="1" vertex="1">
          <mxGeometry x="580" y="340" width="60" height="60" as="geometry" />
        </mxCell>
        <mxCell id="QAyvV6yLoATiYzHATPbl-15" value="" style="endArrow=classic;html=1;entryX=0;entryY=0.5;entryDx=0;entryDy=0;exitX=1;exitY=0.5;exitDx=0;exitDy=0;" parent="1" source="QAyvV6yLoATiYzHATPbl-9" target="QAyvV6yLoATiYzHATPbl-14" edge="1">
          <mxGeometry width="50" height="50" relative="1" as="geometry">
            <mxPoint x="380" y="450" as="sourcePoint" />
            <mxPoint x="430" y="400" as="targetPoint" />
          </mxGeometry>
        </mxCell>
        <mxCell id="QAyvV6yLoATiYzHATPbl-16" value="" style="shape=link;html=1;" parent="1" edge="1">
          <mxGeometry width="50" height="50" relative="1" as="geometry">
            <mxPoint x="680" y="520" as="sourcePoint" />
            <mxPoint x="680" y="280" as="targetPoint" />
          </mxGeometry>
        </mxCell>
        <mxCell id="QAyvV6yLoATiYzHATPbl-19" value="" style="endArrow=classic;html=1;entryX=0.5;entryY=0;entryDx=0;entryDy=0;" parent="1" target="QAyvV6yLoATiYzHATPbl-21" edge="1">
          <mxGeometry width="50" height="50" relative="1" as="geometry">
            <mxPoint x="610" y="400" as="sourcePoint" />
            <mxPoint x="560" y="360" as="targetPoint" />
          </mxGeometry>
        </mxCell>
        <mxCell id="QAyvV6yLoATiYzHATPbl-20" value="System Management" style="rounded=0;whiteSpace=wrap;html=1;fillColor=#fff2cc;strokeColor=#d6b656;" parent="1" vertex="1">
          <mxGeometry x="450" y="450" width="80" height="40" as="geometry" />
        </mxCell>
        <mxCell id="QAyvV6yLoATiYzHATPbl-21" value="Processing" style="rounded=0;whiteSpace=wrap;html=1;fillColor=#fff2cc;strokeColor=#d6b656;" parent="1" vertex="1">
          <mxGeometry x="582.5" y="450" width="55" height="40" as="geometry" />
        </mxCell>
        <mxCell id="QAyvV6yLoATiYzHATPbl-23" value="Raw Data UI" style="rounded=0;whiteSpace=wrap;html=1;" parent="1" vertex="1">
          <mxGeometry x="720" y="330" width="160" height="40" as="geometry" />
        </mxCell>
        <mxCell id="QAyvV6yLoATiYzHATPbl-25" value="" style="endArrow=classic;html=1;entryX=0;entryY=0.5;entryDx=0;entryDy=0;" parent="1" target="QAyvV6yLoATiYzHATPbl-23" edge="1">
          <mxGeometry width="50" height="50" relative="1" as="geometry">
            <mxPoint x="640" y="370" as="sourcePoint" />
            <mxPoint x="760" y="300" as="targetPoint" />
          </mxGeometry>
        </mxCell>
        <mxCell id="QAyvV6yLoATiYzHATPbl-27" value="Downstream App" style="ellipse;shape=cloud;whiteSpace=wrap;html=1;" parent="1" vertex="1">
          <mxGeometry x="710" y="470" width="170" height="40" as="geometry" />
        </mxCell>
        <mxCell id="QAyvV6yLoATiYzHATPbl-28" value="" style="endArrow=classic;html=1;exitX=1;exitY=0.5;exitDx=0;exitDy=0;entryX=0.4;entryY=0.1;entryDx=0;entryDy=0;entryPerimeter=0;" parent="1" source="QAyvV6yLoATiYzHATPbl-14" target="QAyvV6yLoATiYzHATPbl-27" edge="1">
          <mxGeometry width="50" height="50" relative="1" as="geometry">
            <mxPoint x="710" y="350" as="sourcePoint" />
            <mxPoint x="760" y="300" as="targetPoint" />
          </mxGeometry>
        </mxCell>
        <mxCell id="QAyvV6yLoATiYzHATPbl-29" value="" style="endArrow=classic;html=1;entryX=0.07;entryY=0.4;entryDx=0;entryDy=0;entryPerimeter=0;exitX=1;exitY=0.5;exitDx=0;exitDy=0;" parent="1" source="QAyvV6yLoATiYzHATPbl-21" target="QAyvV6yLoATiYzHATPbl-27" edge="1">
          <mxGeometry width="50" height="50" relative="1" as="geometry">
            <mxPoint x="640" y="460" as="sourcePoint" />
            <mxPoint x="760" y="300" as="targetPoint" />
          </mxGeometry>
        </mxCell>
        <mxCell id="QAyvV6yLoATiYzHATPbl-30" value="&lt;b&gt;&lt;u&gt;Display &amp;amp; Downstream&lt;/u&gt;&lt;/b&gt;" style="text;html=1;strokeColor=none;fillColor=none;align=center;verticalAlign=middle;whiteSpace=wrap;rounded=0;" parent="1" vertex="1">
          <mxGeometry x="680" y="290" width="240" height="20" as="geometry" />
        </mxCell>
        <mxCell id="QAyvV6yLoATiYzHATPbl-33" value="" style="endArrow=classic;html=1;dashed=1;exitX=1.001;exitY=0.891;exitDx=0;exitDy=0;exitPerimeter=0;entryX=0;entryY=0.5;entryDx=0;entryDy=0;startArrow=classic;startFill=1;" parent="1" source="QAyvV6yLoATiYzHATPbl-3" edge="1">
          <mxGeometry width="50" height="50" relative="1" as="geometry">
            <mxPoint x="520" y="450" as="sourcePoint" />
            <mxPoint x="450" y="470" as="targetPoint" />
          </mxGeometry>
        </mxCell>
        <mxCell id="QAyvV6yLoATiYzHATPbl-34" value="" style="endArrow=classic;html=1;dashed=1;exitX=1.018;exitY=0.865;exitDx=0;exitDy=0;exitPerimeter=0;entryX=0;entryY=0.5;entryDx=0;entryDy=0;startArrow=classic;startFill=1;" parent="1" source="QAyvV6yLoATiYzHATPbl-4" edge="1">
          <mxGeometry width="50" height="50" relative="1" as="geometry">
            <mxPoint x="370.1199999999999" y="365.6399999999999" as="sourcePoint" />
            <mxPoint x="450" y="470" as="targetPoint" />
          </mxGeometry>
        </mxCell>
        <mxCell id="QAyvV6yLoATiYzHATPbl-35" value="" style="endArrow=classic;html=1;dashed=1;exitX=1.029;exitY=0.873;exitDx=0;exitDy=0;exitPerimeter=0;entryX=0;entryY=0.5;entryDx=0;entryDy=0;startArrow=classic;startFill=1;" parent="1" source="QAyvV6yLoATiYzHATPbl-5" edge="1">
          <mxGeometry width="50" height="50" relative="1" as="geometry">
            <mxPoint x="380.1199999999999" y="375.6399999999999" as="sourcePoint" />
            <mxPoint x="450" y="470" as="targetPoint" />
          </mxGeometry>
        </mxCell>
        <mxCell id="QAyvV6yLoATiYzHATPbl-36" value="" style="endArrow=classic;html=1;dashed=1;exitX=1;exitY=0.75;exitDx=0;exitDy=0;entryX=0;entryY=0.5;entryDx=0;entryDy=0;startArrow=classic;startFill=1;" parent="1" source="QAyvV6yLoATiYzHATPbl-6" edge="1">
          <mxGeometry width="50" height="50" relative="1" as="geometry">
            <mxPoint x="390.1199999999999" y="385.6399999999999" as="sourcePoint" />
            <mxPoint x="450" y="470" as="targetPoint" />
          </mxGeometry>
        </mxCell>
        <mxCell id="QAyvV6yLoATiYzHATPbl-37" value="Derived Data UI" style="rounded=0;whiteSpace=wrap;html=1;" parent="1" vertex="1">
          <mxGeometry x="720" y="380" width="160" height="40" as="geometry" />
        </mxCell>
        <mxCell id="QAyvV6yLoATiYzHATPbl-41" value="" style="endArrow=classic;startArrow=classic;html=1;exitX=0.5;exitY=1;exitDx=0;exitDy=0;entryX=0.491;entryY=-0.118;entryDx=0;entryDy=0;entryPerimeter=0;" parent="1" source="QAyvV6yLoATiYzHATPbl-9" target="QAyvV6yLoATiYzHATPbl-20" edge="1">
          <mxGeometry width="50" height="50" relative="1" as="geometry">
            <mxPoint x="540" y="510" as="sourcePoint" />
            <mxPoint x="490" y="440" as="targetPoint" />
          </mxGeometry>
        </mxCell>
        <mxCell id="QAyvV6yLoATiYzHATPbl-42" value="" style="endArrow=classic;html=1;entryX=0;entryY=0.5;entryDx=0;entryDy=0;exitX=1;exitY=0.5;exitDx=0;exitDy=0;" parent="1" source="QAyvV6yLoATiYzHATPbl-21" target="QAyvV6yLoATiYzHATPbl-37" edge="1">
          <mxGeometry width="50" height="50" relative="1" as="geometry">
            <mxPoint x="655" y="470" as="sourcePoint" />
            <mxPoint x="731.9000000000001" y="496" as="targetPoint" />
          </mxGeometry>
        </mxCell>
        <mxCell id="QAyvV6yLoATiYzHATPbl-44" value="" style="endArrow=classic;html=1;exitX=1;exitY=0.5;exitDx=0;exitDy=0;entryX=0;entryY=0.5;entryDx=0;entryDy=0;" parent="1" source="QAyvV6yLoATiYzHATPbl-20" target="QAyvV6yLoATiYzHATPbl-21" edge="1">
          <mxGeometry width="50" height="50" relative="1" as="geometry">
            <mxPoint x="590" y="470" as="sourcePoint" />
            <mxPoint x="640" y="420" as="targetPoint" />
          </mxGeometry>
        </mxCell>
        <mxCell id="QAyvV6yLoATiYzHATPbl-45" value="coverage area" style="ellipse;whiteSpace=wrap;html=1;strokeColor=#82b366;fillColor=#E3F7E2;" parent="1" vertex="1">
          <mxGeometry x="10" y="340" width="180" height="80" as="geometry" />
        </mxCell>
        <mxCell id="QAyvV6yLoATiYzHATPbl-46" value="" style="endArrow=none;dashed=1;html=1;entryX=0;entryY=0;entryDx=0;entryDy=0;exitX=0.5;exitY=0;exitDx=0;exitDy=0;" parent="1" source="QAyvV6yLoATiYzHATPbl-45" target="QAyvV6yLoATiYzHATPbl-3" edge="1">
          <mxGeometry width="50" height="50" relative="1" as="geometry">
            <mxPoint x="170" y="340" as="sourcePoint" />
            <mxPoint x="220" y="290" as="targetPoint" />
          </mxGeometry>
        </mxCell>
        <mxCell id="QAyvV6yLoATiYzHATPbl-47" value="" style="endArrow=none;dashed=1;html=1;entryX=0;entryY=1;entryDx=0;entryDy=0;exitX=1;exitY=1;exitDx=0;exitDy=0;" parent="1" source="QAyvV6yLoATiYzHATPbl-45" target="QAyvV6yLoATiYzHATPbl-3" edge="1">
          <mxGeometry width="50" height="50" relative="1" as="geometry">
            <mxPoint x="110" y="350" as="sourcePoint" />
            <mxPoint x="250.0000000000001" y="330" as="targetPoint" />
          </mxGeometry>
        </mxCell>
        <mxCell id="QAyvV6yLoATiYzHATPbl-48" value="" style="shape=umlActor;verticalLabelPosition=bottom;labelBackgroundColor=#ffffff;verticalAlign=top;html=1;outlineConnect=0;strokeColor=#000000;fillColor=none;" parent="1" vertex="1">
          <mxGeometry x="30" y="360" width="10" height="30" as="geometry" />
        </mxCell>
        <mxCell id="QAyvV6yLoATiYzHATPbl-49" value="" style="shape=umlActor;verticalLabelPosition=bottom;labelBackgroundColor=#ffffff;verticalAlign=top;html=1;outlineConnect=0;strokeColor=#000000;fillColor=none;" parent="1" vertex="1">
          <mxGeometry x="70" y="340" width="10" height="30" as="geometry" />
        </mxCell>
        <mxCell id="QAyvV6yLoATiYzHATPbl-50" value="" style="shape=umlActor;verticalLabelPosition=bottom;labelBackgroundColor=#ffffff;verticalAlign=top;html=1;outlineConnect=0;strokeColor=#000000;fillColor=none;" parent="1" vertex="1">
          <mxGeometry x="150" y="340" width="10" height="30" as="geometry" />
        </mxCell>
        <mxCell id="QAyvV6yLoATiYzHATPbl-51" value="" style="shape=umlActor;verticalLabelPosition=bottom;labelBackgroundColor=#ffffff;verticalAlign=top;html=1;outlineConnect=0;strokeColor=#000000;fillColor=none;" parent="1" vertex="1">
          <mxGeometry x="110" y="330" width="10" height="30" as="geometry" />
        </mxCell>
        <mxCell id="QAyvV6yLoATiYzHATPbl-52" value="" style="shape=umlActor;verticalLabelPosition=bottom;labelBackgroundColor=#ffffff;verticalAlign=top;html=1;outlineConnect=0;strokeColor=#000000;fillColor=none;" parent="1" vertex="1">
          <mxGeometry x="100" y="390" width="10" height="30" as="geometry" />
        </mxCell>
      </root>
    </mxGraphModel>
  </diagram>
</mxfile>
